<?xml version="1.0" standalone="no"?>
<!DOCTYPE svg PUBLIC "-//W3C//DTD SVG 20010904//EN"
 "http://www.w3.org/TR/2001/REC-SVG-20010904/DTD/svg10.dtd">
<svg version="1.0" xmlns="http://www.w3.org/2000/svg"
 width="2560.000000pt" height="2560.000000pt" viewBox="0 0 2560.000000 2560.000000"
 preserveAspectRatio="xMidYMid meet">
<metadata>
Created by potrace 1.14, written by Peter Selinger 2001-2017
</metadata>
<g transform="translate(0.000000,2560.000000) scale(0.100000,-0.100000)"
fill="#000000" stroke="none">
<path d="M5890 20203 c-282 -27 -430 -51 -648 -104 -1372 -334 -2473 -1304
-2891 -2548 -123 -363 -178 -682 -188 -1071 -11 -460 31 -880 129 -1297 l32
-133 919 0 c895 0 919 0 906 19 -8 10 -36 45 -62 77 -148 180 -302 465 -379
700 -248 749 -150 1658 247 2299 194 314 467 587 776 778 504 311 1133 448
1819 397 496 -37 869 -131 1240 -313 437 -214 800 -551 1054 -977 248 -415
401 -931 436 -1475 21 -315 29 -401 40 -437 17 -58 70 -120 130 -153 48 -25
68 -30 152 -33 134 -6 209 19 272 89 89 99 81 -95 81 2059 l0 1905 -21 45
c-30 62 -67 98 -133 129 -50 23 -68 26 -176 26 -112 0 -124 -2 -178 -28 -31
-16 -69 -44 -83 -62 -36 -48 -64 -144 -64 -223 -1 -139 -52 -287 -144 -416
-24 -34 -85 -101 -135 -149 l-91 -88 -108 100 c-194 180 -378 313 -609 439
-443 241 -1026 400 -1625 442 -134 9 -614 12 -698 3z"/>
<path d="M12969 19916 c-183 -49 -295 -237 -261 -437 23 -136 95 -240 203
-295 66 -33 23 -32 906 -16 387 7 707 11 713 7 7 -4 10 -685 10 -2066 l0
-2059 880 0 880 0 2 2063 3 2062 105 3 c58 2 377 -2 710 -10 774 -17 735 -17
803 15 231 113 284 455 100 641 -88 88 -168 113 -310 97 -48 -6 -144 -17 -213
-25 -427 -52 -804 -67 -1836 -73 -1345 -8 -1846 12 -2529 97 -90 12 -111 11
-166 -4z"/>
<path d="M20357 19919 c-133 -31 -237 -147 -268 -296 -33 -161 56 -364 190
-432 71 -37 114 -41 366 -31 132 5 435 12 674 15 383 6 433 5 428 -8 -3 -8
-816 -936 -1806 -2061 -991 -1126 -1801 -2049 -1801 -2051 0 -3 237 -5 528 -5
l527 1 1815 2064 1815 2065 231 0 c127 0 424 -5 660 -12 623 -16 589 -17 656
14 149 69 242 259 210 430 -25 134 -97 233 -207 284 -67 30 -126 37 -210 24
-530 -80 -900 -100 -1840 -100 -948 0 -1284 18 -1815 100 -76 11 -101 11 -153
-1z"/>
<path d="M0 13475 l0 -385 12800 0 12800 0 0 385 0 385 -12800 0 -12800 0 0
-385z"/>
<path d="M6440 11770 c600 -173 800 -245 1114 -402 786 -392 1298 -962 1502
-1672 111 -385 136 -839 68 -1246 -147 -877 -776 -1604 -1694 -1956 -609 -234
-1307 -285 -2032 -149 -605 114 -1152 368 -1576 732 -636 546 -1019 1307
-1127 2243 -9 74 -20 248 -25 385 -12 334 -28 383 -147 442 -54 26 -67 28
-178 28 -101 0 -127 -3 -166 -21 -94 -44 -152 -128 -166 -240 -5 -33 -6 -1024
-3 -2204 l5 -2145 30 -54 c54 -97 147 -142 299 -144 141 -1 232 47 280 148 29
60 35 97 46 255 6 90 17 173 30 220 28 98 89 227 144 305 51 70 156 171 209
200 l35 19 79 -71 c333 -299 794 -593 1218 -776 582 -250 1142 -367 1758 -367
457 1 845 46 1277 151 975 235 1834 763 2413 1485 590 734 901 1681 873 2654
-19 656 -127 1154 -357 1652 -87 188 -252 467 -372 630 l-21 28 -1980 -1
-1981 0 445 -129z"/>
<path d="M14540 9130 l0 -2770 -402 0 c-222 0 -566 5 -764 11 -324 10 -368 9
-417 -5 -101 -29 -194 -124 -234 -240 -27 -76 -24 -223 6 -298 30 -77 97 -150
173 -187 75 -38 125 -40 354 -11 551 68 966 84 2164 84 1205 0 1545 -13 2115
-80 121 -14 250 -24 286 -22 129 7 239 92 289 225 28 72 30 192 7 274 -36 123
-142 233 -249 260 -35 8 -137 8 -410 0 -200 -6 -542 -11 -760 -11 l-398 0 0
2770 0 2770 -880 0 -880 0 0 -2770z"/>
<path d="M17216 11888 c4 -6 955 -1236 2114 -2732 1158 -1497 2119 -2739 2135
-2760 l30 -39 -545 8 c-827 14 -796 14 -853 -14 -27 -13 -70 -45 -95 -70 -184
-184 -148 -518 69 -636 72 -39 152 -43 359 -16 541 68 965 85 2170 85 1206 0
1613 -16 2165 -85 213 -27 292 -23 364 17 218 118 253 447 69 636 -26 27 -69
59 -95 71 -56 26 -26 25 -893 13 l-575 -8 -2140 2771 -2140 2770 -1073 1
c-824 0 -1071 -3 -1066 -12z"/>
</g>
</svg>
